<svg width="16" height="13" viewBox="0 0 16 13" fill="none" xmlns="http://www.w3.org/2000/svg">
<path d="M13.1907 0H2.80925L0 4.43016L8 12.8L16 4.43016L13.1907 0ZM5.51407 4.05153L7.95969 1.03717L10.405 4.05153H5.51407ZM10.4597 4.67908L7.98837 11.1053L5.31953 4.67908H10.4597ZM8.45022 0.627291H12.5081L10.9997 3.77031L8.45022 0.627291ZM4.91937 3.77031L3.41098 0.627291H7.46916L4.91937 3.77031ZM4.34145 4.05153H0.999188L2.90179 1.05135L4.34145 4.05153ZM4.62256 4.67908L7.31331 11.1586L1.11959 4.67908H4.62256ZM11.1494 4.67908H14.8804L8.63853 11.2096L11.1494 4.67908ZM11.5777 4.05153L13.0525 0.979142L15.0011 4.05153H11.5777Z" fill="#B78E6C"/>
</svg>
