<svg width="41" height="40" viewBox="0 0 41 40" fill="none" xmlns="http://www.w3.org/2000/svg">
<path d="M26.4939 13.7644C26.7297 13.7644 26.9209 13.5778 26.9209 13.3477C26.9209 13.1176 26.7297 12.931 26.4939 12.931C26.258 12.931 26.0668 13.1176 26.0668 13.3477C26.0668 13.5778 26.258 13.7644 26.4939 13.7644Z" stroke="white" stroke-miterlimit="10"/>
<path d="M25.0854 8.33334H15.0898C11.4734 8.33334 8.54163 11.1936 8.54163 14.7218V24.4736C8.54163 28.0018 11.4734 30.8621 15.0898 30.8621H25.0854C28.7018 30.8621 31.6336 28.0018 31.6336 24.4736V14.7218C31.6336 11.1936 28.7018 8.33334 25.0854 8.33334Z" stroke="white" stroke-miterlimit="10"/>
<path d="M20.0876 24.6506C22.948 24.6506 25.2668 22.3883 25.2668 19.5977C25.2668 16.8071 22.948 14.5448 20.0876 14.5448C17.2273 14.5448 14.9084 16.8071 14.9084 19.5977C14.9084 22.3883 17.2273 24.6506 20.0876 24.6506Z" stroke="white" stroke-miterlimit="10"/>
</svg>
