<svg width="40" height="40" viewBox="0 0 40 40" fill="none" xmlns="http://www.w3.org/2000/svg">
<g clip-path="url(#clip0_546_189)">
<path d="M14.0917 30.8333H8.60837V15.95H14.0834V30.8333H14.0917ZM9.45004 30H13.2584V16.7833H9.44171V30H9.45004ZM30.8417 30.8333H25.3667V22.9C25.3667 20.1417 23.9084 20.1417 23.4334 20.1417C23 20.1417 22.575 20.2833 22.2167 20.5417C21.8584 20.8 21.5917 21.1583 21.4417 21.575C21.3417 21.8917 21.3 22.225 21.3084 22.5583V30.8417H15.825V30.425C15.825 30.3 15.8917 17.6917 15.825 16.4L15.8084 15.9667H21.3084V17.1417C21.6417 16.8 22.0334 16.5 22.4584 16.2667C23.2584 15.825 24.175 15.6083 25.0834 15.6417C28.5584 15.6417 30.6834 18 30.825 21.9667V22.3833V30.8583L30.8417 30.8333ZM26.2 30H30.0084V22.3583C30.0084 18.6083 28.2084 16.45 25.075 16.45C24.2834 16.4083 23.5334 16.6 22.8667 16.975C22.1917 17.35 21.6417 17.9 21.2584 18.5667L20.4834 19.925V16.7833H16.6834C16.725 19.0833 16.6834 27.925 16.675 30H20.4834V22.5667C20.4667 22.15 20.525 21.7167 20.6584 21.3C20.8667 20.7083 21.2334 20.2167 21.7334 19.8583C22.2334 19.5 22.825 19.3083 23.4334 19.3083C24.4667 19.3083 26.2084 19.775 26.2084 22.9V30H26.2ZM11.575 14.875C11.4917 14.875 11.4 14.875 11.3167 14.8667C10.9584 14.8917 10.575 14.8333 10.2 14.7C9.83337 14.5667 9.50004 14.3583 9.21671 14.0833C8.93337 13.8083 8.70837 13.4917 8.55837 13.125C8.40837 12.7583 8.33337 12.375 8.33337 11.9833C8.33337 11.5917 8.42504 11.2083 8.58337 10.85C8.74171 10.4917 8.97504 10.175 9.26671 9.90832C9.55837 9.64165 9.89171 9.44165 10.2667 9.31665C10.625 9.19165 11 9.14998 11.3834 9.16665C11.7667 9.14165 12.1417 9.19165 12.5084 9.31665C12.8834 9.44998 13.2167 9.64998 13.5084 9.92498C13.8 10.1917 14.025 10.5167 14.1834 10.8833C14.3417 11.25 14.4167 11.6333 14.4167 12.0333C14.4167 12.425 14.3334 12.8167 14.1667 13.175C14 13.5333 13.775 13.8583 13.4834 14.125C13.1917 14.3917 12.85 14.5917 12.475 14.7167C12.1834 14.8167 11.8834 14.8667 11.575 14.8667V14.875ZM11.325 14.0333H11.3834C11.6584 14.0583 11.9334 14.0333 12.2 13.9417C12.4667 13.85 12.7 13.7083 12.9084 13.525C13.1167 13.3333 13.275 13.1083 13.3917 12.85C13.5084 12.5917 13.5667 12.3167 13.5667 12.0417C13.5667 11.7583 13.5167 11.4833 13.4 11.225C13.2917 10.9667 13.125 10.7333 12.925 10.55C12.7167 10.3583 12.4834 10.2167 12.2167 10.125C11.95 10.0333 11.6834 9.99998 11.4 10.0167H11.3667H11.3334C11.0584 9.99165 10.7834 10.0167 10.525 10.1167C10.2584 10.2083 10.025 10.3417 9.81671 10.5333C9.60837 10.7167 9.45004 10.9417 9.33337 11.2C9.21671 11.4583 9.15837 11.725 9.15837 12.0083C9.15837 12.2833 9.20837 12.5667 9.31671 12.8167C9.42504 13.075 9.58337 13.3 9.78337 13.4917C9.98337 13.6833 10.2167 13.8333 10.475 13.925C10.7334 14.025 11.0084 14.0583 11.2834 14.0417H11.3167L11.325 14.0333Z" fill="white"/>
</g>
<defs>
<clipPath id="clip0_546_189">
<rect width="22.5" height="21.6667" fill="white" transform="translate(8.33337 9.16666)"/>
</clipPath>
</defs>
</svg>
