<svg width="16" height="19" viewBox="0 0 16 19" fill="none" xmlns="http://www.w3.org/2000/svg">
<path d="M3.322 1.01315C1.20814 1.01315 0.906977 3.45659 1.02062 4.6783H14.9141C14.9141 1.47342 13.0958 0.8995 12.1013 1.01315H3.322Z" stroke="#B78E6C" stroke-width="0.7"/>
<path d="M1.02148 13.2891H15.0002V13.2891C15.0002 15.8311 12.9395 17.8918 10.3975 17.8918H5.62424C3.08221 17.8918 1.02148 15.8311 1.02148 13.2891V13.2891Z" stroke="#B78E6C" stroke-width="0.7"/>
<path d="M2.64097 9.10806L1.02148 4.67578" stroke="#B78E6C" stroke-width="0.7"/>
<path d="M14.9978 4.59375L12.9521 9.1965" stroke="#B78E6C" stroke-width="0.7"/>
<path d="M6.81641 7.83721L8.09495 8.76582L9.20302 7.83721L8.60204 6.89062H7.41306L6.81641 7.83721Z" stroke="#B78E6C" stroke-width="0.7"/>
<path d="M5.28711 11.671C5.28711 10.7335 5.70896 8.9375 8.09558 8.9375C10.1369 8.9375 10.657 10.7335 10.657 11.671" stroke="#B78E6C" stroke-width="0.7"/>
<path d="M10.3122 9.10547H12.8693L15.0002 13.3673H1.02148L2.64097 9.10547H5.19806" stroke="#B78E6C" stroke-width="0.7"/>
<path d="M9.06152 6.51878C9.56102 6.45577 10.3016 6.35018 10.3523 5.35634C10.3511 5.31873 10.352 5.28188 10.355 5.24609C10.355 5.28401 10.3541 5.32074 10.3523 5.35634C10.3677 5.86757 10.7635 6.51878 11.6069 6.51878C11.1757 6.68194 10.355 7.00152 10.355 7.79147C10.355 7.39987 10.1998 6.51878 9.06152 6.51878Z" fill="#B78E6C"/>
</svg>
