<svg width="24" height="24" viewBox="0 0 24 24" fill="none" xmlns="http://www.w3.org/2000/svg">
<g clip-path="url(#clip0_491_249)">
<path d="M4.06149 19.002L3.56531 18.9402L4.06149 19.002ZM19.9382 19.002L20.4344 18.9402L19.9382 19.002ZM14.5 7C14.5 8.38071 13.3807 9.5 12 9.5V10.5C13.933 10.5 15.5 8.933 15.5 7H14.5ZM12 4.5C13.3807 4.5 14.5 5.61929 14.5 7H15.5C15.5 5.067 13.933 3.5 12 3.5V4.5ZM9.5 7C9.5 5.61929 10.6193 4.5 12 4.5V3.5C10.067 3.5 8.5 5.067 8.5 7H9.5ZM12 9.5C10.6193 9.5 9.5 8.38071 9.5 7H8.5C8.5 8.933 10.067 10.5 12 10.5V9.5ZM11.9998 11.5C7.66414 11.5 4.0873 14.7457 3.56531 18.9402L4.55766 19.0637C5.01811 15.3637 8.17493 12.5 11.9998 12.5V11.5ZM20.4344 18.9402C19.9124 14.7458 16.3355 11.5 11.9998 11.5V12.5C15.8247 12.5 18.9816 15.3637 19.442 19.0637L20.4344 18.9402ZM18.9998 20.5C19.8093 20.5 20.5449 19.8282 20.4344 18.9402L19.442 19.0637C19.4679 19.2719 19.295 19.5 18.9998 19.5V20.5ZM4.99984 20.5H18.9998V19.5H4.99984V20.5ZM3.56531 18.9402C3.45481 19.8282 4.19043 20.5 4.99984 20.5V19.5C4.70469 19.5 4.53176 19.2719 4.55766 19.0637L3.56531 18.9402Z" fill="#866768"/>
</g>
<defs>
<clipPath id="clip0_491_249">
<rect width="24" height="24" fill="white"/>
</clipPath>
</defs>
</svg>
