<svg width="24" height="24" viewBox="0 0 24 24" fill="none" xmlns="http://www.w3.org/2000/svg">
<g clip-path="url(#clip0_491_381)">
<rect width="24" height="24" fill="white"/>
<path d="M4.06161 19.002L3.56544 18.9402L4.06161 19.002ZM19.9383 19.002L20.4345 18.9402L19.9383 19.002ZM14.5001 7C14.5001 8.38071 13.3808 9.5 12.0001 9.5V10.5C13.9331 10.5 15.5001 8.933 15.5001 7H14.5001ZM12.0001 4.5C13.3808 4.5 14.5001 5.61929 14.5001 7H15.5001C15.5001 5.067 13.9331 3.5 12.0001 3.5V4.5ZM9.50012 7C9.50012 5.61929 10.6194 4.5 12.0001 4.5V3.5C10.0671 3.5 8.50012 5.067 8.50012 7H9.50012ZM12.0001 9.5C10.6194 9.5 9.50012 8.38071 9.50012 7H8.50012C8.50012 8.933 10.0671 10.5 12.0001 10.5V9.5ZM12 11.5C7.66427 11.5 4.08742 14.7457 3.56544 18.9402L4.55778 19.0637C5.01823 15.3637 8.17506 12.5 12 12.5V11.5ZM20.4345 18.9402C19.9125 14.7458 16.3357 11.5 12 11.5V12.5C15.8249 12.5 18.9817 15.3637 19.4421 19.0637L20.4345 18.9402ZM19 20.5C19.8094 20.5 20.545 19.8282 20.4345 18.9402L19.4421 19.0637C19.468 19.2719 19.2951 19.5 19 19.5V20.5ZM4.99996 20.5H19V19.5H4.99996V20.5ZM3.56544 18.9402C3.45493 19.8282 4.19055 20.5 4.99996 20.5V19.5C4.70481 19.5 4.53188 19.2719 4.55778 19.0637L3.56544 18.9402Z" fill="#796E65"/>
</g>
<defs>
<clipPath id="clip0_491_381">
<rect width="24" height="24" fill="white"/>
</clipPath>
</defs>
</svg>
