<svg width="41" height="40" viewBox="0 0 41 40" fill="none" xmlns="http://www.w3.org/2000/svg">
<g clip-path="url(#clip0_546_181)">
<path d="M26.1546 16.3416C25.9752 16.325 25.7958 16.3166 25.6079 16.3166C21.5848 16.3166 18.3219 19.1083 18.3219 22.55C18.3219 23.1416 18.4244 23.7166 18.6038 24.2583C18.2621 24.3 17.929 24.3166 17.5788 24.3166C16.4513 24.3166 15.3665 24.1166 14.3842 23.7833L11.369 25.55L12.1121 22.6333C11.6252 22.2916 11.1725 21.8916 10.7881 21.475C9.6521 20.225 8.97731 18.65 8.97731 16.95C8.96877 12.8833 12.8211 9.58331 17.5702 9.58331C22.0717 9.58331 25.7788 12.5583 26.1461 16.3416H26.1546Z" stroke="white" stroke-miterlimit="10"/>
<path d="M30.2289 27.3583L30.8524 29.8167L28.307 28.3167C27.4699 28.6083 26.5645 28.7667 25.6078 28.7667C22.2766 28.7667 19.4664 26.8583 18.5951 24.25C18.4157 23.7083 18.3132 23.1333 18.3132 22.5417C18.3132 19.1 21.5761 16.3083 25.5993 16.3083C25.7872 16.3083 25.9666 16.3083 26.1459 16.3333C29.9043 16.5667 32.8768 19.2583 32.8768 22.5417C32.8768 23.9917 32.3045 25.3167 31.3393 26.3667C31.0061 26.725 30.6389 27.0583 30.2289 27.3583Z" stroke="white" stroke-miterlimit="10"/>
<path d="M14.1535 15C14.3894 15 14.5806 14.8134 14.5806 14.5833C14.5806 14.3532 14.3894 14.1667 14.1535 14.1667C13.9177 14.1667 13.7264 14.3532 13.7264 14.5833C13.7264 14.8134 13.9177 15 14.1535 15Z" stroke="white" stroke-miterlimit="10"/>
<path d="M20.9527 15C21.1886 15 21.3798 14.8134 21.3798 14.5833C21.3798 14.3532 21.1886 14.1667 20.9527 14.1667C20.7168 14.1667 20.5256 14.3532 20.5256 14.5833C20.5256 14.8134 20.7168 15 20.9527 15Z" stroke="white" stroke-miterlimit="10"/>
<path d="M23.0454 20.6666C23.2812 20.6666 23.4725 20.4801 23.4725 20.25C23.4725 20.0199 23.2812 19.8333 23.0454 19.8333C22.8095 19.8333 22.6183 20.0199 22.6183 20.25C22.6183 20.4801 22.8095 20.6666 23.0454 20.6666Z" stroke="white" stroke-miterlimit="10"/>
<path d="M28.3497 20.6666C28.5856 20.6666 28.7768 20.4801 28.7768 20.25C28.7768 20.0199 28.5856 19.8333 28.3497 19.8333C28.1138 19.8333 27.9226 20.0199 27.9226 20.25C27.9226 20.4801 28.1138 20.6666 28.3497 20.6666Z" stroke="white" stroke-miterlimit="10"/>
</g>
<defs>
<clipPath id="clip0_546_181">
<rect width="24.7708" height="21.5333" fill="white" transform="translate(8.54163 9.16666)"/>
</clipPath>
</defs>
</svg>
