<svg width="41" height="40" viewBox="0 0 41 40" fill="none" xmlns="http://www.w3.org/2000/svg">
<path fill-rule="evenodd" clip-rule="evenodd" d="M31.4394 13.9617C30.7905 12.8697 30.0874 12.6691 28.6541 12.5929C27.2224 12.5011 23.6208 12.4638 20.5022 12.4638C17.3773 12.4638 13.7741 12.5011 12.344 12.5929C10.9139 12.6707 10.2092 12.8697 9.55391 13.9617C8.88588 15.0536 8.5415 16.931 8.5415 20.2379V20.2504C8.5415 23.5433 8.88588 25.4347 9.55391 26.5126C10.2076 27.603 10.9123 27.8021 12.344 27.8939C13.7741 27.9716 17.3757 28.0183 20.5022 28.0183C23.6208 28.0183 27.2224 27.9716 28.6557 27.8939C30.089 27.8021 30.7921 27.603 31.441 26.5126C32.117 25.4331 32.4582 23.5417 32.4582 20.2504V20.2379C32.4566 16.931 32.117 15.0536 31.4394 13.9617Z" stroke="white" stroke-miterlimit="10" stroke-linecap="round" stroke-linejoin="round"/>
<path fill-rule="evenodd" clip-rule="evenodd" d="M18.1074 24.1297V16.3524L24.4848 20.241L18.1074 24.1297Z" stroke="white" stroke-miterlimit="10" stroke-linecap="round" stroke-linejoin="round"/>
</svg>
