<svg width="182" height="46" viewBox="0 0 182 46" fill="none" xmlns="http://www.w3.org/2000/svg">
<rect x="2" width="178" height="1" fill="#B78E6C"/>
<rect y="2" width="1" height="42" fill="#B78E6C"/>
<rect x="181" y="2" width="1" height="42" fill="#B78E6C"/>
<rect x="2" y="45" width="178" height="1" fill="#B78E6C"/>
<path d="M40.5289 18.2H41.7049L45.0789 23.674L48.4389 18.2H49.5729V28H48.3969V20.328L45.0509 25.774L41.7049 20.342V28H40.5289V18.2ZM56.0908 18.032C58.9188 18.032 60.9348 20.272 60.9348 23.1C60.9348 25.928 58.9188 28.168 56.0908 28.168C53.2628 28.168 51.2468 25.928 51.2468 23.1C51.2468 20.272 53.2628 18.032 56.0908 18.032ZM56.0908 27.048C58.2328 27.048 59.6748 25.186 59.6748 23.1C59.6748 21.014 58.2328 19.152 56.0908 19.152C53.9488 19.152 52.5068 21.014 52.5068 23.1C52.5068 25.186 53.9488 27.048 56.0908 27.048ZM65.2269 22.876C66.5429 22.876 67.2569 22.176 67.2569 21.098C67.2569 20.02 66.5429 19.32 65.2269 19.32H63.7849V22.876H65.2269ZM62.6089 28V18.2H65.1569C67.1029 18.2 68.4329 19.348 68.4329 21.098C68.4329 23.422 66.3189 23.856 66.0389 23.898L68.7549 28H67.3409L64.6949 23.996H63.7849V28H62.6089ZM71.5232 19.32V22.414H75.6672V23.534H71.5232V26.88H76.0872V28H70.3472V18.2H76.0032V19.32H71.5232ZM82.0823 28V18.2H83.2583V28H82.0823ZM85.7554 18.2H86.9734L92.2234 26.04V18.2H93.3994V28H92.1814L86.9314 20.16V28H85.7554V18.2ZM102.779 18.2L98.6909 28.28L94.6029 18.2H95.8909L98.7189 25.382L101.561 18.2H102.779ZM107.894 18.032C110.722 18.032 112.738 20.272 112.738 23.1C112.738 25.928 110.722 28.168 107.894 28.168C105.066 28.168 103.05 25.928 103.05 23.1C103.05 20.272 105.066 18.032 107.894 18.032ZM107.894 27.048C110.036 27.048 111.478 25.186 111.478 23.1C111.478 21.014 110.036 19.152 107.894 19.152C105.752 19.152 104.31 21.014 104.31 23.1C104.31 25.186 105.752 27.048 107.894 27.048ZM114.608 28V18.2H115.784V28H114.608ZM126.023 19.53L125.211 20.3C125.211 20.3 124.301 19.152 122.509 19.152C120.381 19.152 118.925 21.014 118.925 23.1C118.925 25.186 120.381 27.048 122.509 27.048C124.287 27.048 125.337 25.746 125.337 25.746L126.135 26.558C126.135 26.558 124.805 28.168 122.509 28.168C119.681 28.168 117.665 25.928 117.665 23.1C117.665 20.272 119.681 18.032 122.509 18.032C124.805 18.032 126.023 19.53 126.023 19.53ZM128.74 19.32V22.414H132.884V23.534H128.74V26.88H133.304V28H127.564V18.2H133.22V19.32H128.74ZM139.687 25.508C139.687 24.486 138.875 24.094 137.783 23.59C136.355 22.932 135.095 22.274 135.095 20.608C135.095 19.46 136.047 18.032 137.923 18.032C139.771 18.032 140.709 19.46 140.709 19.46L139.827 20.174C139.827 20.174 139.141 19.152 137.923 19.152C136.845 19.152 136.271 19.908 136.271 20.608C136.271 21.602 137.111 21.994 138.455 22.61C139.953 23.296 140.891 23.926 140.891 25.508C140.891 27.104 139.575 28.168 137.853 28.168C135.529 28.168 134.731 26.124 134.731 26.124L135.711 25.536C135.711 25.536 136.299 27.048 137.853 27.048C138.791 27.048 139.687 26.516 139.687 25.508Z" fill="white"/>
</svg>
